<mxfile host="app.diagrams.net" agent="Mozilla/5.0 (Windows NT 10.0; Win64; x64) AppleWebKit/537.36 (KHTML, like Gecko) Chrome/129.0.0.0 Safari/537.36" version="24.7.17">
  <diagram id="R2lEEEUBdFMjLlhIrx00" name="Page-1">
    <mxGraphModel dx="593" dy="643" grid="1" gridSize="10" guides="1" tooltips="1" connect="1" arrows="1" fold="1" page="1" pageScale="1" pageWidth="850" pageHeight="1100" math="0" shadow="0" extFonts="Permanent Marker^https://fonts.googleapis.com/css?family=Permanent+Marker">
      <root>
        <mxCell id="0" />
        <mxCell id="1" parent="0" />
        <mxCell id="JP_8U3r7n_vU4FtW_BxT-1" value="ARTICULO" style="rounded=1;whiteSpace=wrap;html=1;" parent="1" vertex="1">
          <mxGeometry x="470" y="370" width="120" height="60" as="geometry" />
        </mxCell>
        <mxCell id="JP_8U3r7n_vU4FtW_BxT-2" value="PROVEEDOR" style="rounded=1;whiteSpace=wrap;html=1;" parent="1" vertex="1">
          <mxGeometry x="130" y="370" width="120" height="60" as="geometry" />
        </mxCell>
        <mxCell id="IhVxrk_rQ8vjY3RrljUe-1" value="PROVEER" style="rhombus;whiteSpace=wrap;html=1;" vertex="1" parent="1">
          <mxGeometry x="320" y="360" width="80" height="80" as="geometry" />
        </mxCell>
        <mxCell id="IhVxrk_rQ8vjY3RrljUe-2" value="" style="endArrow=none;html=1;rounded=0;exitX=1;exitY=0.5;exitDx=0;exitDy=0;entryX=0;entryY=0.5;entryDx=0;entryDy=0;" edge="1" parent="1" source="JP_8U3r7n_vU4FtW_BxT-2" target="IhVxrk_rQ8vjY3RrljUe-1">
          <mxGeometry width="50" height="50" relative="1" as="geometry">
            <mxPoint x="340" y="420" as="sourcePoint" />
            <mxPoint x="390" y="370" as="targetPoint" />
          </mxGeometry>
        </mxCell>
        <mxCell id="IhVxrk_rQ8vjY3RrljUe-3" value="" style="endArrow=none;html=1;rounded=0;exitX=1;exitY=0.5;exitDx=0;exitDy=0;entryX=0;entryY=0.5;entryDx=0;entryDy=0;" edge="1" parent="1" source="IhVxrk_rQ8vjY3RrljUe-1" target="JP_8U3r7n_vU4FtW_BxT-1">
          <mxGeometry width="50" height="50" relative="1" as="geometry">
            <mxPoint x="260" y="410" as="sourcePoint" />
            <mxPoint x="330" y="410" as="targetPoint" />
          </mxGeometry>
        </mxCell>
        <mxCell id="IhVxrk_rQ8vjY3RrljUe-4" value="1,1" style="text;html=1;align=center;verticalAlign=middle;whiteSpace=wrap;rounded=0;" vertex="1" parent="1">
          <mxGeometry x="232" y="377" width="60" height="30" as="geometry" />
        </mxCell>
        <mxCell id="IhVxrk_rQ8vjY3RrljUe-5" value="1,N" style="text;html=1;align=center;verticalAlign=middle;whiteSpace=wrap;rounded=0;" vertex="1" parent="1">
          <mxGeometry x="426" y="377" width="60" height="30" as="geometry" />
        </mxCell>
        <mxCell id="IhVxrk_rQ8vjY3RrljUe-6" value="1,N" style="text;html=1;align=center;verticalAlign=middle;whiteSpace=wrap;rounded=0;" vertex="1" parent="1">
          <mxGeometry x="330" y="400" width="60" height="30" as="geometry" />
        </mxCell>
        <mxCell id="IhVxrk_rQ8vjY3RrljUe-7" value="&lt;ul&gt;&lt;li&gt;codigo_articulo&lt;/li&gt;&lt;li&gt;descripcion&lt;/li&gt;&lt;li&gt;precio&lt;/li&gt;&lt;/ul&gt;" style="text;strokeColor=none;fillColor=none;html=1;whiteSpace=wrap;verticalAlign=middle;overflow=hidden;" vertex="1" parent="1">
          <mxGeometry x="470" y="420" width="170" height="80" as="geometry" />
        </mxCell>
        <mxCell id="IhVxrk_rQ8vjY3RrljUe-8" value="&lt;ul&gt;&lt;li&gt;dni_proveedor&lt;/li&gt;&lt;li&gt;telefono_proveedor&lt;/li&gt;&lt;/ul&gt;" style="text;strokeColor=none;fillColor=none;html=1;whiteSpace=wrap;verticalAlign=middle;overflow=hidden;" vertex="1" parent="1">
          <mxGeometry x="116" y="414" width="170" height="80" as="geometry" />
        </mxCell>
        <mxCell id="IhVxrk_rQ8vjY3RrljUe-9" value="&lt;font style=&quot;font-size: 18px;&quot;&gt;EJERCICIO 1&lt;/font&gt;" style="text;html=1;align=center;verticalAlign=middle;whiteSpace=wrap;rounded=0;" vertex="1" parent="1">
          <mxGeometry x="60" y="310" width="190" height="30" as="geometry" />
        </mxCell>
        <mxCell id="IhVxrk_rQ8vjY3RrljUe-11" value="ARTICULO" style="rounded=1;whiteSpace=wrap;html=1;" vertex="1" parent="1">
          <mxGeometry x="470" y="590" width="120" height="60" as="geometry" />
        </mxCell>
        <mxCell id="IhVxrk_rQ8vjY3RrljUe-12" value="PROVEEDOR" style="rounded=1;whiteSpace=wrap;html=1;" vertex="1" parent="1">
          <mxGeometry x="130" y="590" width="120" height="60" as="geometry" />
        </mxCell>
        <mxCell id="IhVxrk_rQ8vjY3RrljUe-13" value="PROVEER" style="rhombus;whiteSpace=wrap;html=1;" vertex="1" parent="1">
          <mxGeometry x="320" y="580" width="80" height="80" as="geometry" />
        </mxCell>
        <mxCell id="IhVxrk_rQ8vjY3RrljUe-14" value="" style="endArrow=none;html=1;rounded=0;exitX=1;exitY=0.5;exitDx=0;exitDy=0;entryX=0;entryY=0.5;entryDx=0;entryDy=0;" edge="1" parent="1" source="IhVxrk_rQ8vjY3RrljUe-12" target="IhVxrk_rQ8vjY3RrljUe-13">
          <mxGeometry width="50" height="50" relative="1" as="geometry">
            <mxPoint x="340" y="640" as="sourcePoint" />
            <mxPoint x="390" y="590" as="targetPoint" />
          </mxGeometry>
        </mxCell>
        <mxCell id="IhVxrk_rQ8vjY3RrljUe-15" value="" style="endArrow=none;html=1;rounded=0;exitX=1;exitY=0.5;exitDx=0;exitDy=0;entryX=0;entryY=0.5;entryDx=0;entryDy=0;" edge="1" parent="1" source="IhVxrk_rQ8vjY3RrljUe-13" target="IhVxrk_rQ8vjY3RrljUe-11">
          <mxGeometry width="50" height="50" relative="1" as="geometry">
            <mxPoint x="260" y="630" as="sourcePoint" />
            <mxPoint x="330" y="630" as="targetPoint" />
          </mxGeometry>
        </mxCell>
        <mxCell id="IhVxrk_rQ8vjY3RrljUe-16" value="1,N" style="text;html=1;align=center;verticalAlign=middle;whiteSpace=wrap;rounded=0;" vertex="1" parent="1">
          <mxGeometry x="232" y="597" width="60" height="30" as="geometry" />
        </mxCell>
        <mxCell id="IhVxrk_rQ8vjY3RrljUe-17" value="1,N" style="text;html=1;align=center;verticalAlign=middle;whiteSpace=wrap;rounded=0;" vertex="1" parent="1">
          <mxGeometry x="426" y="597" width="60" height="30" as="geometry" />
        </mxCell>
        <mxCell id="IhVxrk_rQ8vjY3RrljUe-18" value="1,N" style="text;html=1;align=center;verticalAlign=middle;whiteSpace=wrap;rounded=0;" vertex="1" parent="1">
          <mxGeometry x="330" y="620" width="60" height="30" as="geometry" />
        </mxCell>
        <mxCell id="IhVxrk_rQ8vjY3RrljUe-19" value="&lt;ul&gt;&lt;li&gt;codigo_articulo&lt;/li&gt;&lt;li&gt;descripcion&lt;/li&gt;&lt;li&gt;precio&lt;/li&gt;&lt;/ul&gt;" style="text;strokeColor=none;fillColor=none;html=1;whiteSpace=wrap;verticalAlign=middle;overflow=hidden;" vertex="1" parent="1">
          <mxGeometry x="470" y="640" width="170" height="80" as="geometry" />
        </mxCell>
        <mxCell id="IhVxrk_rQ8vjY3RrljUe-20" value="&lt;ul&gt;&lt;li&gt;dni_proveedor&lt;/li&gt;&lt;li&gt;telefono_proveedor&lt;/li&gt;&lt;/ul&gt;" style="text;strokeColor=none;fillColor=none;html=1;whiteSpace=wrap;verticalAlign=middle;overflow=hidden;" vertex="1" parent="1">
          <mxGeometry x="116" y="634" width="170" height="80" as="geometry" />
        </mxCell>
        <mxCell id="IhVxrk_rQ8vjY3RrljUe-21" value="&lt;font style=&quot;font-size: 18px;&quot;&gt;EJERCICIO 2&lt;/font&gt;" style="text;html=1;align=center;verticalAlign=middle;whiteSpace=wrap;rounded=0;" vertex="1" parent="1">
          <mxGeometry x="60" y="530" width="190" height="30" as="geometry" />
        </mxCell>
      </root>
    </mxGraphModel>
  </diagram>
</mxfile>
